<?xml version="1.0" standalone="no"?>
<!DOCTYPE svg PUBLIC "-//W3C//DTD SVG 20010904//EN"
 "http://www.w3.org/TR/2001/REC-SVG-20010904/DTD/svg10.dtd">
<svg version="1.0" xmlns="http://www.w3.org/2000/svg"
 width="143.000000pt" height="143.000000pt" viewBox="0 0 143.000000 143.000000"
 preserveAspectRatio="xMidYMid meet">
<metadata>
Created by potrace 1.11, written by Peter Selinger 2001-2013
</metadata>
<g transform="translate(0.000000,143.000000) scale(0.100000,-0.100000)"
fill="#000000" stroke="none">
<path d="M643 1295 c-46 -20 -93 -73 -105 -121 l-11 -42 -33 14 c-162 68 -321
-111 -240 -269 l24 -49 -32 -13 c-122 -51 -126 -195 -7 -244 28 -12 44 -41 22
-41 -5 0 -17 -20 -27 -45 -45 -118 40 -238 180 -252 30 -3 67 -1 83 4 26 10
30 8 53 -29 32 -51 106 -88 175 -88 70 0 148 40 177 90 18 31 26 37 43 31 85
-31 200 7 251 81 40 58 41 136 2 196 l-27 41 28 6 c37 8 88 59 96 96 14 63
-22 125 -91 154 l-32 13 24 48 c26 52 30 89 14 146 -29 105 -154 166 -254 124
-34 -14 -34 -14 -40 17 -10 49 -54 104 -100 127 -49 23 -126 26 -173 5z m77
-338 c113 1 225 3 249 5 38 2 47 -2 73 -31 26 -29 29 -40 25 -73 -3 -22 -14
-46 -24 -53 -60 -44 -58 -40 -42 -76 8 -21 14 -68 14 -119 0 -74 -4 -92 -29
-143 -94 -185 -309 -233 -454 -102 -105 94 -135 226 -87 380 5 16 -2 24 -28
38 -102 55 -55 201 58 180 22 -4 132 -6 245 -6z"/>
</g>
</svg>
